KumbhSans-Regular.ufo
<glyph name="dollar" format="1">
  <advance width="1070"/>
  <unicode hex="0024"/>
  <outline>
    <contour>
      <point x="85" y="216" type="line"/>
      <point x="203" y="121"/>
      <point x="346" y="67"/>
      <point x="491" y="61" type="curve"/>
      <point x="491" y="-120" type="line"/>
      <point x="600" y="-120" type="line"/>
      <point x="600" y="65" type="line"/>
      <point x="825" y="92"/>
      <point x="975" y="236"/>
      <point x="975" y="438" type="curve" smooth="yes"/>
      <point x="975" y="666"/>
      <point x="784" y="750"/>
      <point x="609" y="827" type="curve" smooth="yes"/>
      <point x="460" y="892"/>
      <point x="322" y="952"/>
      <point x="322" y="1092" type="curve" smooth="yes"/>
      <point x="322" y="1215"/>
      <point x="428" y="1300"/>
      <point x="579" y="1300" type="curve" smooth="yes"/>
      <point x="665" y="1300"/>
      <point x="762" y="1273"/>
      <point x="844" y="1224" type="curve"/>
      <point x="907" y="1354" type="line"/>
      <point x="809" y="1406"/>
      <point x="704" y="1435"/>
      <point x="600" y="1439" type="curve"/>
      <point x="600" y="1620" type="line"/>
      <point x="491" y="1620" type="line"/>
      <point x="491" y="1435" type="line"/>
      <point x="291" y="1408"/>
      <point x="160" y="1276"/>
      <point x="160" y="1090" type="curve" smooth="yes"/>
      <point x="160" y="869"/>
      <point x="343" y="792"/>
      <point x="520" y="716" type="curve" smooth="yes"/>
      <point x="668" y="653"/>
      <point x="813" y="591"/>
      <point x="813" y="437" type="curve" smooth="yes"/>
      <point x="813" y="296"/>
      <point x="692" y="200"/>
      <point x="515" y="200" type="curve" smooth="yes"/>
      <point x="394" y="200"/>
      <point x="280" y="245"/>
      <point x="161" y="340" type="curve"/>
    </contour>
  </outline>
</glyph>
<glyph name="percent" format="1">
  <advance width="1677"/>
  <unicode hex="0025"/>
  <outline>
    <contour>
      <point x="417" y="873" type="curve" smooth="yes"/>
      <point x="616" y="873"/>
      <point x="748" y="1002"/>
      <point x="748" y="1196" type="curve" smooth="yes"/>
      <point x="748" y="1391"/>
      <point x="617" y="1520"/>
      <point x="417" y="1520" type="curve" smooth="yes"/>
      <point x="218" y="1520"/>
      <point x="85" y="1391"/>
      <point x="85" y="1196" type="curve" smooth="yes"/>
      <point x="85" y="1002"/>
      <point x="218" y="873"/>
    </contour>
    <contour>
      <point x="429" y="0" type="line"/>
      <point x="1396" y="1500" type="line"/>
      <point x="1252" y="1500" type="line"/>
      <point x="285" y="0" type="line"/>
    </contour>
    <contour>
      <point x="417" y="974" type="curve" smooth="yes"/>
      <point x="291" y="974"/>
      <point x="207" y="1062"/>
      <point x="207" y="1196" type="curve" smooth="yes"/>
      <point x="207" y="1330"/>
      <point x="291" y="1419"/>
      <point x="417" y="1419" type="curve" smooth="yes"/>
      <point x="543" y="1419"/>
      <point x="626" y="1330"/>
      <point x="626" y="1196" type="curve" smooth="yes"/>
      <point x="626" y="1063"/>
      <point x="542" y="974"/>
    </contour>
    <contour>
      <point x="1260" y="-20" type="curve" smooth="yes"/>
      <point x="1459" y="-20"/>
      <point x="1592" y="109"/>
      <point x="1592" y="303" type="curve" smooth="yes"/>
      <point x="1592" y="498"/>
      <point x="1460" y="627"/>
      <point x="1260" y="627" type="curve" smooth="yes"/>
      <point x="1061" y="627"/>
      <point x="929" y="498"/>
      <point x="929" y="303" type="curve" smooth="yes"/>
      <point x="929" y="109"/>
      <point x="1061" y="-20"/>
    </contour>
    <contour>
      <point x="1260" y="81" type="curve" smooth="yes"/>
      <point x="1134" y="81"/>
      <point x="1051" y="169"/>
      <point x="1051" y="303" type="curve" smooth="yes"/>
      <point x="1051" y="437"/>
      <point x="1134" y="526"/>
      <point x="1260" y="526" type="curve" smooth="yes"/>
      <point x="1386" y="526"/>
      <point x="1470" y="437"/>
      <point x="1470" y="303" type="curve" smooth="yes"/>
      <point x="1470" y="170"/>
      <point x="1385" y="81"/>
    </contour>
  </outline>
</glyph>
<glyph name="slash" format="1">
  <advance width="825"/>
  <unicode hex="002F"/>
  <outline>
    <contour>
      <point x="173" y="-20" type="line" name="av01"/>
      <point x="810" y="1520" type="line" name="at01"/>
      <point x="653" y="1520" type="line"/>
      <point x="15" y="-20" type="line"/>
    </contour>
  </outline>
</glyph>
<glyph name="nine" format="1">
  <advance width="1145"/>
  <unicode hex="0039"/>
  <outline>
    <contour>
      <point x="443" y="0" type="line"/>
      <point x="819" y="219"/>
      <point x="1060" y="600"/>
      <point x="1060" y="978" type="curve" smooth="yes"/>
      <point x="1060" y="1314"/>
      <point x="871" y="1530"/>
      <point x="576" y="1530" type="curve" smooth="yes"/>
      <point x="292" y="1530"/>
      <point x="85" y="1329"/>
      <point x="85" y="1053" type="curve" smooth="yes"/>
      <point x="85" y="791"/>
      <point x="273" y="603"/>
      <point x="535" y="603" type="curve" smooth="yes"/>
      <point x="681" y="603"/>
      <point x="805" y="661"/>
      <point x="887" y="761" type="curve"/>
      <point x="807" y="511"/>
      <point x="615" y="271"/>
      <point x="361" y="115" type="curve"/>
    </contour>
    <contour>
      <point x="565" y="742" type="curve" smooth="yes"/>
      <point x="389" y="742"/>
      <point x="265" y="869"/>
      <point x="265" y="1050" type="curve" smooth="yes"/>
      <point x="265" y="1235"/>
      <point x="395" y="1375"/>
      <point x="568" y="1375" type="curve" smooth="yes"/>
      <point x="742" y="1375"/>
      <point x="874" y="1236"/>
      <point x="874" y="1054" type="curve" smooth="yes"/>
      <point x="874" y="873"/>
      <point x="744" y="742"/>
    </contour>
  </outline>
</glyph>
<glyph name="less" format="1">
  <advance width="1166"/>
  <unicode hex="003C"/>
  <outline>
    <contour>
      <point x="1011" y="0" type="line"/>
      <point x="1011" y="143" type="line"/>
      <point x="234" y="513" type="line"/>
      <point x="1011" y="877" type="line"/>
      <point x="1011" y="1020" type="line"/>
      <point x="75" y="561" type="line"/>
      <point x="75" y="465" type="line"/>
    </contour>
  </outline>
</glyph>
<glyph name="at" format="1">
  <advance width="1938"/>
  <unicode hex="0040"/>
  <outline>
    <contour>
      <point x="918" y="78" type="curve" smooth="yes"/>
      <point x="1075" y="78"/>
      <point x="1206" y="145"/>
      <point x="1290" y="265" type="curve"/>
      <point x="1319" y="148"/>
      <point x="1400" y="78"/>
      <point x="1512" y="78" type="curve" smooth="yes"/>
      <point x="1714" y="78"/>
      <point x="1863" y="305"/>
      <point x="1863" y="615" type="curve" smooth="yes"/>
      <point x="1863" y="1084"/>
      <point x="1520" y="1413"/>
      <point x="1023" y="1413" type="curve" smooth="yes"/>
      <point x="481" y="1413"/>
      <point x="75" y="1022"/>
      <point x="75" y="498" type="curve" smooth="yes"/>
      <point x="75" y="34"/>
      <point x="392" y="-285"/>
      <point x="854" y="-285" type="curve" smooth="yes"/>
      <point x="1028" y="-285"/>
      <point x="1203" y="-240"/>
      <point x="1370" y="-153" type="curve"/>
      <point x="1296" y="-19" type="line"/>
      <point x="1174" y="-95"/>
      <point x="1027" y="-135"/>
      <point x="876" y="-135" type="curve" smooth="yes"/>
      <point x="498" y="-135"/>
      <point x="245" y="120"/>
      <point x="245" y="502" type="curve" smooth="yes"/>
      <point x="245" y="939"/>
      <point x="578" y="1263"/>
      <point x="1024" y="1263" type="curve" smooth="yes"/>
      <point x="1429" y="1263"/>
      <point x="1698" y="996"/>
      <point x="1698" y="594" type="curve" smooth="yes"/>
      <point x="1698" y="386"/>
      <point x="1627" y="228"/>
      <point x="1532" y="228" type="curve" smooth="yes"/>
      <point x="1473" y="228"/>
      <point x="1426" y="288"/>
      <point x="1426" y="367" type="curve" smooth="yes"/>
      <point x="1426" y="463"/>
      <point x="1454" y="765"/>
      <point x="1479" y="957" type="curve"/>
      <point x="1323" y="957" type="line"/>
      <point x="1314" y="847" type="line"/>
      <point x="1242" y="957"/>
      <point x="1121" y="1021"/>
      <point x="969" y="1021" type="curve" smooth="yes"/>
      <point x="692" y="1021"/>
      <point x="482" y="805"/>
      <point x="482" y="521" type="curve" smooth="yes"/>
      <point x="482" y="259"/>
      <point x="660" y="78"/>
    </contour>
    <contour>
      <point x="943" y="228" type="curve" smooth="yes"/>
      <point x="768" y="228"/>
      <point x="652" y="347"/>
      <point x="652" y="524" type="curve" smooth="yes"/>
      <point x="652" y="722"/>
      <point x="800" y="871"/>
      <point x="996" y="871" type="curve" smooth="yes"/>
      <point x="1172" y="871"/>
      <point x="1292" y="752"/>
      <point x="1292" y="575" type="curve"/>
      <point x="1287" y="517" type="line"/>
      <point x="1260" y="350"/>
      <point x="1120" y="228"/>
    </contour>
  </outline>
</glyph>
<glyph name="E" format="1">
  <advance width="1229"/>
  <unicode hex="0045"/>
  <outline>
    <contour>
      <point x="155" y="0" type="line"/>
      <point x="1084" y="0" type="line"/>
      <point x="1084" y="156" type="line"/>
      <point x="331" y="156" type="line"/>
      <point x="331" y="684" type="line"/>
      <point x="1033" y="684" type="line"/>
      <point x="1033" y="840" type="line"/>
      <point x="331" y="840" type="line"/>
      <point x="331" y="1344" type="line"/>
      <point x="1074" y="1344" type="line"/>
      <point x="1074" y="1500" type="line"/>
      <point x="155" y="1500" type="line"/>
    </contour>
  </outline>
</glyph>
<glyph name="I" format="1">
  <advance width="486"/>
  <unicode hex="0049"/>
  <outline>
    <contour>
      <point x="331" y="1500" type="line" name="at01"/>
      <point x="331" y="0" type="line" name="ab01"/>
      <point x="155" y="0" type="line" name="dh01"/>
      <point x="155" y="1500" type="line"/>
    </contour>
  </outline>
</glyph>
<glyph name="J" format="1">
  <advance width="497"/>
  <unicode hex="004A"/>
  <outline>
    <contour>
      <point x="-187" y="-360" type="line"/>
      <point x="182" y="-360"/>
      <point x="342" y="-203"/>
      <point x="342" y="155" type="curve" smooth="yes"/>
      <point x="342" y="1500" type="line"/>
      <point x="166" y="1500" type="line"/>
      <point x="166" y="147" type="line" smooth="yes"/>
      <point x="166" y="-87"/>
      <point x="46" y="-205"/>
      <point x="-195" y="-205" type="curve"/>
    </contour>
  </outline>
</glyph>
<glyph name="M" format="1">
  <advance width="1821"/>
  <unicode hex="004D"/>
  <outline>
    <contour>
      <point x="1666" y="0" type="line"/>
      <point x="1666" y="1500" type="line"/>
      <point x="1436" y="1500" type="line"/>
      <point x="910" y="437" type="line"/>
      <point x="382" y="1500" type="line"/>
      <point x="155" y="1500" type="line"/>
      <point x="155" y="0" type="line"/>
      <point x="331" y="0" type="line"/>
      <point x="331" y="1247" type="line"/>
      <point x="830" y="252" type="line"/>
      <point x="989" y="252" type="line"/>
      <point x="1490" y="1253" type="line"/>
      <point x="1490" y="0" type="line"/>
    </contour>
  </outline>
</glyph>
<glyph name="O" format="1">
  <advance width="1729"/>
  <unicode hex="004F"/>
  <outline>
    <contour>
      <point x="865" y="-30" type="curve" smooth="yes"/>
      <point x="1315" y="-30"/>
      <point x="1644" y="301"/>
      <point x="1644" y="750" type="curve" smooth="yes"/>
      <point x="1644" y="1200"/>
      <point x="1315" y="1530"/>
      <point x="865" y="1530" type="curve" smooth="yes"/>
      <point x="414" y="1530"/>
      <point x="85" y="1200"/>
      <point x="85" y="750" type="curve" smooth="yes"/>
      <point x="85" y="301"/>
      <point x="414" y="-30"/>
    </contour>
    <contour>
      <point x="865" y="126" type="curve" smooth="yes"/>
      <point x="520" y="126"/>
      <point x="265" y="392"/>
      <point x="265" y="750" type="curve" smooth="yes"/>
      <point x="265" y="1108"/>
      <point x="520" y="1374"/>
      <point x="865" y="1374" type="curve" smooth="yes"/>
      <point x="1210" y="1374"/>
      <point x="1464" y="1108"/>
      <point x="1464" y="750" type="curve" smooth="yes"/>
      <point x="1464" y="393"/>
      <point x="1210" y="126"/>
    </contour>
  </outline>
</glyph>
<glyph name="T" format="1">
  <advance width="1210"/>
  <unicode hex="0054"/>
  <outline>
    <contour>
      <point x="693" y="0" type="line"/>
      <point x="693" y="1344" type="line"/>
      <point x="1175" y="1344" type="line"/>
      <point x="1175" y="1500" type="line"/>
      <point x="35" y="1500" type="line"/>
      <point x="35" y="1344" type="line"/>
      <point x="517" y="1344" type="line"/>
      <point x="517" y="0" type="line"/>
    </contour>
  </outline>
</glyph>
<glyph name="asciicircum" format="1">
  <advance width="1056"/>
  <unicode hex="005E"/>
  <outline>
    <contour>
      <point x="981" y="700" type="line"/>
      <point x="577" y="1500" type="line"/>
      <point x="479" y="1500" type="line"/>
      <point x="75" y="700" type="line"/>
      <point x="208" y="700" type="line"/>
      <point x="528" y="1359" type="line"/>
      <point x="848" y="700" type="line"/>
    </contour>
  </outline>
</glyph>
<glyph name="grave" format="1">
  <advance width="494"/>
  <unicode hex="0060"/>
  <outline>
    <contour>
      <point x="399" y="1166" type="line"/>
      <point x="241" y="1500" type="line"/>
      <point x="85" y="1500" type="line"/>
      <point x="279" y="1166" type="line"/>
    </contour>
  </outline>
</glyph>
<glyph name="d" format="1">
  <advance width="1286"/>
  <unicode hex="0064"/>
  <outline>
    <contour>
      <point x="1131" y="0" type="line"/>
      <point x="1131" y="1500" type="line"/>
      <point x="967" y="1500" type="line"/>
      <point x="967" y="865" type="line"/>
      <point x="874.873" y="962"/>
      <point x="742.69" y="1020"/>
      <point x="591.481" y="1020" type="curve" smooth="yes"/>
      <point x="296.073" y="1020"/>
      <point x="75" y="797"/>
      <point x="75" y="500" type="curve" smooth="yes"/>
      <point x="75" y="203"/>
      <point x="296.073" y="-20"/>
      <point x="591.481" y="-20" type="curve" smooth="yes"/>
      <point x="748.698" y="-20"/>
      <point x="883.885" y="43"/>
      <point x="976" y="146" type="curve"/>
      <point x="985" y="0" type="line"/>
    </contour>
    <contour>
      <point x="605.501" y="128" type="curve" smooth="yes"/>
      <point x="399.216" y="128"/>
      <point x="243" y="288"/>
      <point x="243" y="501" type="curve" smooth="yes"/>
      <point x="243" y="713"/>
      <point x="399.216" y="873"/>
      <point x="605.501" y="873" type="curve" smooth="yes"/>
      <point x="806.779" y="873"/>
      <point x="967" y="722"/>
      <point x="967" y="518" type="curve" smooth="yes"/>
      <point x="967" y="484" type="line" smooth="yes"/>
      <point x="967" y="279"/>
      <point x="806.779" y="128"/>
    </contour>
  </outline>
</glyph>
<glyph name="f" format="1">
  <advance width="824"/>
  <unicode hex="0066"/>
  <outline>
    <contour>
      <point x="394" y="0" type="line"/>
      <point x="394" y="853" type="line"/>
      <point x="703" y="853" type="line"/>
      <point x="703" y="1000" type="line"/>
      <point x="394" y="1000" type="line"/>
      <point x="394" y="1183" type="line" smooth="yes"/>
      <point x="394" y="1302"/>
      <point x="464" y="1383"/>
      <point x="567" y="1383" type="curve" smooth="yes"/>
      <point x="613" y="1383"/>
      <point x="661" y="1367"/>
      <point x="706" y="1338" type="curve"/>
      <point x="769" y="1467" type="line"/>
      <point x="696" y="1509"/>
      <point x="618" y="1530"/>
      <point x="542" y="1530" type="curve" smooth="yes"/>
      <point x="358" y="1530"/>
      <point x="230" y="1401"/>
      <point x="230" y="1215" type="curve" smooth="yes"/>
      <point x="230" y="1000" type="line"/>
      <point x="55" y="1000" type="line"/>
      <point x="55" y="853" type="line"/>
      <point x="230" y="853" type="line"/>
      <point x="230" y="0" type="line"/>
    </contour>
  </outline>
</glyph>
<glyph name="q" format="1">
  <advance width="1285"/>
  <unicode hex="0071"/>
  <outline>
    <contour>
      <point x="1130" y="-500" type="line"/>
      <point x="1130" y="1000" type="line"/>
      <point x="984" y="1000" type="line"/>
      <point x="976" y="854" type="line"/>
      <point x="883" y="957"/>
      <point x="747" y="1020"/>
      <point x="590" y="1020" type="curve" smooth="yes"/>
      <point x="296" y="1020"/>
      <point x="75" y="797"/>
      <point x="75" y="500" type="curve" smooth="yes"/>
      <point x="75" y="203"/>
      <point x="296" y="-20"/>
      <point x="590" y="-20" type="curve" smooth="yes"/>
      <point x="741" y="-20"/>
      <point x="873" y="38"/>
      <point x="966" y="135" type="curve"/>
      <point x="966" y="-500" type="line"/>
    </contour>
    <contour>
      <point x="604" y="130" type="curve" smooth="yes"/>
      <point x="394" y="130"/>
      <point x="245" y="284"/>
      <point x="245" y="500" type="curve" smooth="yes"/>
      <point x="245" y="717"/>
      <point x="395" y="870"/>
      <point x="606" y="870" type="curve" smooth="yes"/>
      <point x="806" y="870"/>
      <point x="951" y="732"/>
      <point x="966" y="534" type="curve"/>
      <point x="966" y="465" type="line"/>
      <point x="951" y="268"/>
      <point x="804" y="130"/>
    </contour>
  </outline>
</glyph>
<glyph name="v" format="1">
  <advance width="1150"/>
  <unicode hex="0076"/>
  <outline>
    <contour>
      <point x="1075" y="1000" type="line"/>
      <point x="901" y="1000" type="line"/>
      <point x="576" y="172" type="line"/>
      <point x="252" y="1000" type="line"/>
      <point x="75" y="1000" type="line"/>
      <point x="495" y="0" type="line"/>
      <point x="654" y="0" type="line"/>
    </contour>
  </outline>
</glyph>
<glyph name="currency" format="1">
  <advance width="1280"/>
  <unicode hex="00A4"/>
  <outline>
    <contour>
      <point x="1154" y="339" type="line"/>
      <point x="991" y="500" type="line"/>
      <point x="1053" y="577"/>
      <point x="1086" y="675"/>
      <point x="1086" y="783" type="curve" smooth="yes"/>
      <point x="1086" y="890"/>
      <point x="1053" y="988"/>
      <point x="991" y="1065" type="curve"/>
      <point x="1155" y="1227" type="line"/>
      <point x="1084" y="1298" type="line"/>
      <point x="922" y="1134" type="line"/>
      <point x="845" y="1196"/>
      <point x="748" y="1229"/>
      <point x="640" y="1229" type="curve" smooth="yes"/>
      <point x="532" y="1229"/>
      <point x="434" y="1196"/>
      <point x="357" y="1134" type="curve"/>
      <point x="196" y="1297" type="line"/>
      <point x="125" y="1226" type="line"/>
      <point x="288" y="1065" type="line"/>
      <point x="226" y="988"/>
      <point x="194" y="890"/>
      <point x="194" y="783" type="curve" smooth="yes"/>
      <point x="194" y="675"/>
      <point x="226" y="577"/>
      <point x="288" y="500" type="curve"/>
      <point x="125" y="339" type="line"/>
      <point x="196" y="268" type="line"/>
      <point x="357" y="431" type="line"/>
      <point x="434" y="369"/>
      <point x="533" y="335"/>
      <point x="640" y="335" type="curve" smooth="yes"/>
      <point x="747" y="335"/>
      <point x="845" y="369"/>
      <point x="922" y="431" type="curve"/>
      <point x="1084" y="268" type="line"/>
    </contour>
    <contour>
      <point x="640" y="449" type="curve" smooth="yes"/>
      <point x="454" y="449"/>
      <point x="318" y="590"/>
      <point x="318" y="783" type="curve" smooth="yes"/>
      <point x="318" y="975"/>
      <point x="454" y="1116"/>
      <point x="639" y="1116" type="curve" smooth="yes"/>
      <point x="825" y="1116"/>
      <point x="962" y="975"/>
      <point x="962" y="783" type="curve" smooth="yes"/>
      <point x="962" y="590"/>
      <point x="826" y="449"/>
    </contour>
  </outline>
</glyph>
<glyph name="questiondown" format="1">
  <advance width="924"/>
  <unicode hex="00BF"/>
  <outline>
    <contour>
      <point x="533.078" y="1030" type="curve" smooth="yes"/>
      <point x="474.119" y="1030"/>
      <point x="432.5" y="989.538"/>
      <point x="432.5" y="930.578" type="curve" smooth="yes"/>
      <point x="432.5" y="871.618"/>
      <point x="474.119" y="830"/>
      <point x="533.078" y="830" type="curve" smooth="yes"/>
      <point x="592.038" y="830"/>
      <point x="632.5" y="871.618"/>
      <point x="632.5" y="930.578" type="curve" smooth="yes"/>
      <point x="632.5" y="989.538"/>
      <point x="592.038" y="1030"/>
    </contour>
    <contour>
      <point x="762" y="-250" type="line"/>
      <point x="681" y="-327"/>
      <point x="581" y="-371"/>
      <point x="483" y="-371" type="curve" smooth="yes"/>
      <point x="353" y="-371"/>
      <point x="274" y="-297"/>
      <point x="274" y="-177" type="curve" smooth="yes"/>
      <point x="274" y="-77"/>
      <point x="329" y="-15"/>
      <point x="398" y="63" type="curve" smooth="yes"/>
      <point x="489" y="166"/>
      <point x="605" y="298"/>
      <point x="605" y="609" type="curve"/>
      <point x="461" y="609" type="line"/>
      <point x="461" y="338"/>
      <point x="350" y="217"/>
      <point x="252" y="110" type="curve" smooth="yes"/>
      <point x="174" y="25"/>
      <point x="105" y="-50"/>
      <point x="105" y="-187" type="curve" smooth="yes"/>
      <point x="105" y="-388"/>
      <point x="255" y="-520"/>
      <point x="479" y="-520" type="curve" smooth="yes"/>
      <point x="610" y="-520"/>
      <point x="735" y="-475"/>
      <point x="849" y="-385" type="curve"/>
    </contour>
  </outline>
</glyph>
<glyph name="Thorn" format="1">
  <advance width="1211"/>
  <unicode hex="00DE"/>
  <outline>
    <contour>
      <point x="320" y="0" type="line"/>
      <point x="320" y="314" type="line"/>
      <point x="587" y="314" type="line" smooth="yes"/>
      <point x="886" y="314"/>
      <point x="1076" y="483"/>
      <point x="1076" y="751" type="curve" smooth="yes"/>
      <point x="1076" y="1018"/>
      <point x="887" y="1186"/>
      <point x="587" y="1186" type="curve" smooth="yes"/>
      <point x="320" y="1186" type="line"/>
      <point x="320" y="1500" type="line"/>
      <point x="155" y="1500" type="line"/>
      <point x="155" y="0" type="line"/>
    </contour>
    <contour>
      <point x="320" y="461" type="line"/>
      <point x="320" y="1038" type="line"/>
      <point x="560" y="1038" type="line" smooth="yes"/>
      <point x="781" y="1038"/>
      <point x="908" y="932"/>
      <point x="908" y="750" type="curve" smooth="yes"/>
      <point x="908" y="568"/>
      <point x="781" y="461"/>
      <point x="560" y="461" type="curve" smooth="yes"/>
    </contour>
  </outline>
</glyph>
<glyph name="atilde" format="1">
  <advance width="1097"/>
  <unicode hex="00E3"/>
  <outline>
    <contour>
      <point x="883" y="1447" type="curve"/>
      <point x="809" y="1447" type="line"/>
      <point x="798" y="1373"/>
      <point x="760" y="1333"/>
      <point x="699" y="1333" type="curve" smooth="yes"/>
      <point x="649" y="1333"/>
      <point x="613" y="1359"/>
      <point x="575" y="1388" type="curve" smooth="yes"/>
      <point x="531" y="1422"/>
      <point x="482" y="1457"/>
      <point x="403" y="1457" type="curve" smooth="yes"/>
      <point x="292" y="1457"/>
      <point x="227" y="1386"/>
      <point x="215" y="1252" type="curve"/>
      <point x="289" y="1252" type="line"/>
      <point x="300" y="1326"/>
      <point x="342" y="1368"/>
      <point x="405" y="1368" type="curve" smooth="yes"/>
      <point x="456" y="1368"/>
      <point x="492" y="1342"/>
      <point x="525" y="1316" type="curve" smooth="yes"/>
      <point x="583" y="1270"/>
      <point x="626" y="1242"/>
      <point x="693" y="1242" type="curve" smooth="yes"/>
      <point x="803" y="1242"/>
      <point x="872" y="1316"/>
    </contour>
    <contour>
      <point x="962" y="0" type="line" name="n0"/>
      <point x="962" y="590" type="line" smooth="yes" name="n1"/>
      <point x="962" y="853"/>
      <point x="798" y="1020"/>
      <point x="539" y="1020" type="curve" smooth="yes"/>
      <point x="413" y="1020"/>
      <point x="282" y="981"/>
      <point x="166" y="907" type="curve" name="n7"/>
      <point x="220" y="766" type="line" name="n8"/>
      <point x="309" y="837"/>
      <point x="409" y="870"/>
      <point x="503" y="870" type="curve" smooth="yes"/>
      <point x="664" y="870"/>
      <point x="798" y="775"/>
      <point x="798" y="616" type="curve" smooth="yes"/>
      <point x="798" y="574" type="line"/>
      <point x="716" y="617"/>
      <point x="606" y="643" name="n16.1"/>
      <point x="506" y="643" type="curve" smooth="yes" name="n17"/>
      <point x="276" y="643" name="n18"/>
      <point x="105" y="504" name="n19"/>
      <point x="105" y="307" type="curve" smooth="yes" name="n20"/>
      <point x="105" y="118" name="n21"/>
      <point x="263" y="-20" name="n22"/>
      <point x="480" y="-20" type="curve" smooth="yes" name="n23"/>
      <point x="620" y="-20"/>
      <point x="736" y="37"/>
      <point x="810" y="132" type="curve"/>
      <point x="821" y="0" type="line" name="n16"/>
    </contour>
    <contour>
      <point x="506" y="130" type="curve" smooth="yes" name="n4"/>
      <point x="374" y="130" name="n5"/>
      <point x="275" y="209" name="n6"/>
      <point x="275" y="314" type="curve" smooth="yes" name="n7.1"/>
      <point x="275" y="425"/>
      <point x="386" y="505"/>
      <point x="539" y="505" type="curve" smooth="yes"/>
      <point x="637" y="505"/>
      <point x="731" y="472"/>
      <point x="798" y="415" type="curve" name="n13"/>
      <point x="798" y="407" type="line" smooth="yes"/>
      <point x="794" y="249"/>
      <point x="668" y="130" name="n3"/>
    </contour>
  </outline>
</glyph>
<glyph name="icircumflex" format="1">
  <advance width="475"/>
  <unicode hex="00EE"/>
  <outline>
    <contour>
      <point x="523" y="1166" type="line"/>
      <point x="311" y="1500" type="line" name="at01"/>
      <point x="165" y="1500" type="line" name="at01.1"/>
      <point x="-48" y="1166" type="line"/>
      <point x="75" y="1166" type="line" name="av01"/>
      <point x="238" y="1429" type="line"/>
      <point x="400" y="1166" type="line" name="av01.1"/>
    </contour>
    <contour>
      <point x="320" y="0" type="line"/>
      <point x="320" y="1000" type="line"/>
      <point x="156" y="1000" type="line"/>
      <point x="156" y="0" type="line"/>
    </contour>
  </outline>
</glyph>
<glyph name="Abreve" format="1">
  <advance width="1512"/>
  <unicode hex="0102"/>
  <outline>
    <contour>
      <point x="1065" y="2000" type="curve" name="at01"/>
      <point x="963" y="2000" type="line" name="ah01"/>
      <point x="963" y="1866"/>
      <point x="877" y="1773"/>
      <point x="756" y="1773" type="curve" smooth="yes"/>
      <point x="635" y="1773"/>
      <point x="550" y="1866"/>
      <point x="550" y="2000" type="curve" name="sh01"/>
      <point x="447" y="2000" type="line" name="at02"/>
      <point x="447" y="1818"/>
      <point x="576" y="1685"/>
      <point x="756" y="1685" type="curve" smooth="yes" name="av01"/>
      <point x="936" y="1685"/>
      <point x="1065" y="1818"/>
    </contour>
    <contour>
      <point x="230" y="0" type="line"/>
      <point x="393" y="405" type="line"/>
      <point x="1119" y="405" type="line"/>
      <point x="1282" y="0" type="line"/>
      <point x="1467" y="0" type="line"/>
      <point x="852" y="1500" type="line"/>
      <point x="661" y="1500" type="line"/>
      <point x="45" y="0" type="line"/>
    </contour>
    <contour>
      <point x="455" y="561" type="line"/>
      <point x="756" y="1310" type="line"/>
      <point x="1057" y="561" type="line"/>
    </contour>
  </outline>
</glyph>
<glyph name="Ccaron" format="1">
  <advance width="1529"/>
  <unicode hex="010C"/>
  <outline>
    <contour>
      <point x="926" y="1666" type="line" name="at01"/>
      <point x="1138" y="2000" type="line"/>
      <point x="1016" y="2000" type="line" name="av01"/>
      <point x="853" y="1737" type="line"/>
      <point x="691" y="2000" type="line" name="av01.1"/>
      <point x="568" y="2000" type="line"/>
      <point x="780" y="1666" type="line" name="at01.1"/>
    </contour>
    <contour>
      <point x="1424" y="192" type="curve"/>
      <point x="1299" y="316" type="line"/>
      <point x="1192" y="197"/>
      <point x="1040" y="126"/>
      <point x="863" y="126" type="curve" smooth="yes"/>
      <point x="519" y="126"/>
      <point x="265" y="391"/>
      <point x="265" y="750" type="curve" smooth="yes"/>
      <point x="265" y="1108"/>
      <point x="519" y="1374"/>
      <point x="863" y="1374" type="curve" smooth="yes"/>
      <point x="1040" y="1374"/>
      <point x="1193" y="1303"/>
      <point x="1300" y="1184" type="curve"/>
      <point x="1423" y="1309" type="line"/>
      <point x="1285" y="1448"/>
      <point x="1090" y="1530"/>
      <point x="866" y="1530" type="curve" smooth="yes"/>
      <point x="416" y="1530"/>
      <point x="85" y="1200"/>
      <point x="85" y="750" type="curve" smooth="yes"/>
      <point x="85" y="301"/>
      <point x="416" y="-30"/>
      <point x="866" y="-30" type="curve" smooth="yes"/>
      <point x="1091" y="-30"/>
      <point x="1286" y="53"/>
    </contour>
  </outline>
</glyph>
<glyph name="Lacute" format="1">
  <advance width="1150"/>
  <unicode hex="0139"/>
  <outline>
    <contour>
      <point x="301" y="1666" type="line"/>
      <point x="495" y="2000" type="line"/>
      <point x="338" y="2000" type="line"/>
      <point x="182" y="1666" type="line"/>
    </contour>
    <contour>
      <point x="1075" y="0" type="line"/>
      <point x="1075" y="156" type="line"/>
      <point x="331" y="156" type="line"/>
      <point x="331" y="1500" type="line"/>
      <point x="155" y="1500" type="line"/>
      <point x="155" y="0" type="line"/>
    </contour>
  </outline>
</glyph>
<glyph name="Lcaron" format="1">
  <advance width="1150"/>
  <unicode hex="013D"/>
  <outline>
    <contour>
      <point x="799" y="1050" type="line"/>
      <point x="924" y="1500" type="line"/>
      <point x="803" y="1500" type="line" name="av01.1"/>
      <point x="702" y="1050" type="line"/>
    </contour>
    <contour>
      <point x="1075" y="0" type="line"/>
      <point x="1075" y="156" type="line"/>
      <point x="331" y="156" type="line"/>
      <point x="331" y="1500" type="line"/>
      <point x="155" y="1500" type="line"/>
      <point x="155" y="0" type="line"/>
    </contour>
  </outline>
</glyph>
<glyph name="ncommaaccent" format="1">
  <advance width="1226"/>
  <unicode hex="0146"/>
  <outline>
    <contour>
      <point x="1091" y="0" type="line"/>
      <point x="1091" y="571" type="line" smooth="yes"/>
      <point x="1091" y="850"/>
      <point x="926" y="1020"/>
      <point x="661" y="1020" type="curve" smooth="yes"/>
      <point x="498" y="1020"/>
      <point x="377" y="955"/>
      <point x="304" y="838" type="curve"/>
      <point x="298" y="1000" type="line"/>
      <point x="155" y="1000" type="line"/>
      <point x="155" y="0" type="line"/>
      <point x="319" y="0" type="line"/>
      <point x="319" y="538" type="line" smooth="yes"/>
      <point x="319" y="736"/>
      <point x="445" y="870"/>
      <point x="631" y="870" type="curve" smooth="yes"/>
      <point x="810" y="870"/>
      <point x="927" y="747"/>
      <point x="927" y="558" type="curve" smooth="yes"/>
      <point x="927" y="0" type="line"/>
    </contour>
    <contour>
      <point x="555" y="-476" type="line"/>
      <point x="656" y="-423"/>
      <point x="721" y="-309"/>
      <point x="721" y="-183" type="curve" smooth="yes"/>
      <point x="721" y="-140"/>
      <point x="713" y="-97"/>
      <point x="698" y="-56" type="curve"/>
      <point x="589" y="-82" type="line"/>
      <point x="609" y="-118"/>
      <point x="618" y="-159"/>
      <point x="618" y="-200" type="curve" smooth="yes"/>
      <point x="618" y="-287"/>
      <point x="576" y="-375"/>
      <point x="504" y="-425" type="curve"/>
    </contour>
  </outline>
</glyph>
<glyph name="Obreve" format="1">
  <advance width="1728"/>
  <unicode hex="014E"/>
  <outline>
    <contour>
      <point x="1172" y="2000" type="curve" name="at01"/>
      <point x="1070" y="2000" type="line" name="ah01"/>
      <point x="1070" y="1866"/>
      <point x="984" y="1773"/>
      <point x="863" y="1773" type="curve" smooth="yes"/>
      <point x="742" y="1773"/>
      <point x="657" y="1866"/>
      <point x="657" y="2000" type="curve" name="sh01"/>
      <point x="554" y="2000" type="line" name="at02"/>
      <point x="554" y="1818"/>
      <point x="683" y="1685"/>
      <point x="863" y="1685" type="curve" smooth="yes" name="av01"/>
      <point x="1043" y="1685"/>
      <point x="1172" y="1818"/>
    </contour>
    <contour>
      <point x="865" y="-30" type="curve" smooth="yes"/>
      <point x="1315" y="-30"/>
      <point x="1643" y="301"/>
      <point x="1643" y="750" type="curve" smooth="yes"/>
      <point x="1643" y="1200"/>
      <point x="1315" y="1530"/>
      <point x="865" y="1530" type="curve" smooth="yes"/>
      <point x="414" y="1530"/>
      <point x="85" y="1200"/>
      <point x="85" y="750" type="curve" smooth="yes"/>
      <point x="85" y="301"/>
      <point x="414" y="-30"/>
    </contour>
    <contour>
      <point x="864" y="126" type="curve" smooth="yes"/>
      <point x="519" y="126"/>
      <point x="265" y="392"/>
      <point x="265" y="750" type="curve" smooth="yes"/>
      <point x="265" y="1108"/>
      <point x="519" y="1374"/>
      <point x="864" y="1374" type="curve" smooth="yes"/>
      <point x="1209" y="1374"/>
      <point x="1463" y="1108"/>
      <point x="1463" y="750" type="curve" smooth="yes"/>
      <point x="1463" y="393"/>
      <point x="1209" y="126"/>
    </contour>
  </outline>
</glyph>
<glyph name="oe" format="1">
  <advance width="2051"/>
  <unicode hex="0153"/>
  <outline>
    <contour>
      <point x="1918" y="123" type="curve"/>
      <point x="1842" y="243" type="line"/>
      <point x="1749" y="169"/>
      <point x="1640" y="130"/>
      <point x="1528" y="130" type="curve" smooth="yes"/>
      <point x="1330" y="130"/>
      <point x="1176" y="254"/>
      <point x="1139" y="432" type="curve"/>
      <point x="1976" y="432" type="line"/>
      <point x="1976" y="463" type="line" smooth="yes"/>
      <point x="1976" y="792"/>
      <point x="1770" y="1020"/>
      <point x="1469" y="1020" type="curve" smooth="yes"/>
      <point x="1274" y="1020"/>
      <point x="1114" y="925"/>
      <point x="1028" y="775" type="curve"/>
      <point x="940" y="925"/>
      <point x="781" y="1020"/>
      <point x="589" y="1020" type="curve" smooth="yes"/>
      <point x="295" y="1020"/>
      <point x="75" y="797"/>
      <point x="75" y="500" type="curve" smooth="yes"/>
      <point x="75" y="203"/>
      <point x="295" y="-20"/>
      <point x="589" y="-20" type="curve" smooth="yes"/>
      <point x="786" y="-20"/>
      <point x="949" y="81"/>
      <point x="1035" y="237" type="curve"/>
      <point x="1128" y="80"/>
      <point x="1302" y="-20"/>
      <point x="1508" y="-20" type="curve" smooth="yes"/>
      <point x="1654" y="-20"/>
      <point x="1797" y="30"/>
    </contour>
    <contour>
      <point x="598" y="128" type="curve" smooth="yes"/>
      <point x="395" y="128"/>
      <point x="243" y="288"/>
      <point x="243" y="501" type="curve" smooth="yes"/>
      <point x="243" y="713"/>
      <point x="395" y="873"/>
      <point x="598" y="873" type="curve" smooth="yes"/>
      <point x="800" y="873"/>
      <point x="952" y="713"/>
      <point x="952" y="501" type="curve" smooth="yes"/>
      <point x="952" y="288"/>
      <point x="800" y="128"/>
    </contour>
    <contour>
      <point x="1133" y="560" type="line"/>
      <point x="1153" y="744"/>
      <point x="1290" y="870"/>
      <point x="1478" y="870" type="curve" smooth="yes"/>
      <point x="1664" y="870"/>
      <point x="1800" y="744"/>
      <point x="1821" y="560" type="curve"/>
    </contour>
  </outline>
</glyph>
<glyph name="rcaron" format="1">
  <advance width="797"/>
  <unicode hex="0159"/>
  <outline>
    <contour>
      <point x="471" y="1166" type="line" name="at01"/>
      <point x="684" y="1500" type="line"/>
      <point x="561" y="1500" type="line" name="av01"/>
      <point x="399" y="1237" type="line"/>
      <point x="236" y="1500" type="line" name="av01.1"/>
      <point x="113" y="1500" type="line"/>
      <point x="326" y="1166" type="line" name="at01.1"/>
    </contour>
    <contour>
      <point x="320" y="0" type="line"/>
      <point x="320" y="500" type="line" smooth="yes"/>
      <point x="320" y="718"/>
      <point x="456" y="873"/>
      <point x="653" y="873" type="curve" smooth="yes"/>
      <point x="686" y="873"/>
      <point x="724" y="869"/>
      <point x="762" y="860" type="curve"/>
      <point x="782" y="1008" type="line"/>
      <point x="744" y="1016"/>
      <point x="707" y="1020"/>
      <point x="671" y="1020" type="curve" smooth="yes"/>
      <point x="507" y="1020"/>
      <point x="376" y="939"/>
      <point x="307" y="802" type="curve"/>
      <point x="300" y="1000" type="line"/>
      <point x="156" y="1000" type="line"/>
      <point x="156" y="0" type="line"/>
    </contour>
  </outline>
</glyph>
<glyph name="Scedilla" format="1">
  <advance width="1195"/>
  <unicode hex="015E"/>
  <outline>
    <contour>
      <point x="85" y="146" type="line"/>
      <point x="223" y="35"/>
      <point x="376" y="-24"/>
      <point x="546" y="-30" type="curve"/>
      <point x="505" y="-135" type="line"/>
      <point x="512" y="-134"/>
      <point x="519" y="-134"/>
      <point x="526" y="-134" type="curve" smooth="yes"/>
      <point x="608" y="-134"/>
      <point x="672" y="-176"/>
      <point x="672" y="-233" type="curve" smooth="yes"/>
      <point x="672" y="-286"/>
      <point x="617" y="-326"/>
      <point x="542" y="-326" type="curve" smooth="yes"/>
      <point x="512" y="-326"/>
      <point x="481" y="-320"/>
      <point x="450" y="-307" type="curve"/>
      <point x="416" y="-391" type="line"/>
      <point x="461" y="-407"/>
      <point x="506" y="-415"/>
      <point x="549" y="-415" type="curve" smooth="yes"/>
      <point x="679" y="-415"/>
      <point x="769" y="-340"/>
      <point x="769" y="-236" type="curve" smooth="yes"/>
      <point x="769" y="-147"/>
      <point x="703" y="-86"/>
      <point x="605" y="-77" type="curve"/>
      <point x="625" y="-29" type="line"/>
      <point x="907" y="-12"/>
      <point x="1090" y="152"/>
      <point x="1090" y="394" type="curve" smooth="yes"/>
      <point x="1090" y="657"/>
      <point x="872" y="753"/>
      <point x="666" y="843" type="curve" smooth="yes"/>
      <point x="504" y="914"/>
      <point x="349" y="983"/>
      <point x="349" y="1140" type="curve" smooth="yes"/>
      <point x="349" y="1279"/>
      <point x="469" y="1374"/>
      <point x="645" y="1374" type="curve" smooth="yes"/>
      <point x="744" y="1374"/>
      <point x="848" y="1344"/>
      <point x="942" y="1289" type="curve"/>
      <point x="1014" y="1433" type="line"/>
      <point x="895" y="1496"/>
      <point x="766" y="1529"/>
      <point x="641" y="1529" type="curve" smooth="yes"/>
      <point x="363" y="1529"/>
      <point x="169" y="1364"/>
      <point x="169" y="1126" type="curve" smooth="yes"/>
      <point x="169" y="878"/>
      <point x="377" y="790"/>
      <point x="573" y="707" type="curve" smooth="yes"/>
      <point x="747" y="634"/>
      <point x="911" y="564"/>
      <point x="911" y="392" type="curve" smooth="yes"/>
      <point x="911" y="233"/>
      <point x="773" y="124"/>
      <point x="570" y="124" type="curve" smooth="yes"/>
      <point x="430" y="124"/>
      <point x="299" y="175"/>
      <point x="170" y="281" type="curve"/>
    </contour>
  </outline>
</glyph>
<glyph name="Tcaron" format="1">
  <advance width="1211"/>
  <unicode hex="0164"/>
  <outline>
    <contour>
      <point x="678" y="1666" type="line" name="at01"/>
      <point x="890" y="2000" type="line"/>
      <point x="768" y="2000" type="line" name="av01"/>
      <point x="605" y="1737" type="line"/>
      <point x="443" y="2000" type="line" name="av01.1"/>
      <point x="320" y="2000" type="line"/>
      <point x="532" y="1666" type="line" name="at01.1"/>
    </contour>
    <contour>
      <point x="694" y="0" type="line"/>
      <point x="694" y="1344" type="line"/>
      <point x="1176" y="1344" type="line"/>
      <point x="1176" y="1500" type="line"/>
      <point x="35" y="1500" type="line"/>
      <point x="35" y="1344" type="line"/>
      <point x="518" y="1344" type="line"/>
      <point x="518" y="0" type="line"/>
    </contour>
  </outline>
</glyph>
<glyph name="Umacron" format="1">
  <advance width="1569"/>
  <unicode hex="016A"/>
  <outline>
    <contour>
      <point x="1109" y="1792" type="line" name="av02"/>
      <point x="1109" y="1892" type="line"/>
      <point x="459" y="1892" type="line" name="av01"/>
      <point x="459" y="1792" type="line"/>
    </contour>
    <contour>
      <point x="1414" y="1500" type="line"/>
      <point x="1238" y="1500" type="line"/>
      <point x="1238" y="685" type="line" smooth="yes"/>
      <point x="1238" y="331"/>
      <point x="1070" y="126"/>
      <point x="785" y="126" type="curve" smooth="yes"/>
      <point x="500" y="126"/>
      <point x="331" y="331"/>
      <point x="331" y="685" type="curve" smooth="yes"/>
      <point x="331" y="1500" type="line"/>
      <point x="155" y="1500" type="line"/>
      <point x="155" y="671" type="line" smooth="yes"/>
      <point x="155" y="234"/>
      <point x="393" y="-30"/>
      <point x="785" y="-30" type="curve" smooth="yes"/>
      <point x="1178" y="-30"/>
      <point x="1414" y="234"/>
      <point x="1414" y="671" type="curve" smooth="yes"/>
    </contour>
  </outline>
</glyph>
<glyph name="Uogonek" format="1">
  <advance width="1569"/>
  <unicode hex="0172"/>
  <outline>
    <contour>
      <point x="1414" y="1500" type="line"/>
      <point x="1238" y="1500" type="line"/>
      <point x="1238" y="685" type="line" smooth="yes"/>
      <point x="1238" y="331"/>
      <point x="1069" y="126"/>
      <point x="784" y="126" type="curve" smooth="yes"/>
      <point x="499" y="126"/>
      <point x="331" y="331"/>
      <point x="331" y="685" type="curve" smooth="yes"/>
      <point x="331" y="1500" type="line"/>
      <point x="155" y="1500" type="line"/>
      <point x="155" y="671" type="line" smooth="yes"/>
      <point x="155" y="234"/>
      <point x="392" y="-30"/>
      <point x="784" y="-30" type="curve" smooth="yes"/>
      <point x="822" y="-30"/>
      <point x="859" y="-28"/>
      <point x="894" y="-23" type="curve"/>
      <point x="805" y="-76"/>
      <point x="751" y="-156"/>
      <point x="751" y="-238" type="curve" smooth="yes"/>
      <point x="751" y="-339"/>
      <point x="832" y="-416"/>
      <point x="967" y="-416" type="curve" name="av01"/>
      <point x="977" y="-326" type="line"/>
      <point x="887" y="-320"/>
      <point x="842" y="-269"/>
      <point x="842" y="-206" type="curve" smooth="yes"/>
      <point x="842" y="-128"/>
      <point x="910" y="-37"/>
      <point x="1010" y="4" type="curve"/>
      <point x="1266" y="88"/>
      <point x="1414" y="326"/>
      <point x="1414" y="671" type="curve" smooth="yes"/>
    </contour>
  </outline>
</glyph>
<glyph name="ycircumflex" format="1">
  <advance width="1177"/>
  <unicode hex="0177"/>
  <outline>
    <contour>
      <point x="900" y="1166" type="line"/>
      <point x="688" y="1500" type="line" name="at01"/>
      <point x="542" y="1500" type="line" name="at01.1"/>
      <point x="329" y="1166" type="line"/>
      <point x="452" y="1166" type="line" name="av01"/>
      <point x="615" y="1429" type="line"/>
      <point x="777" y="1166" type="line" name="av01.1"/>
    </contour>
    <contour>
      <point x="502" y="-500" type="line"/>
      <point x="1122" y="1000" type="line"/>
      <point x="945" y="1000" type="line"/>
      <point x="612" y="197" type="line"/>
      <point x="236" y="1000" type="line"/>
      <point x="55" y="1000" type="line"/>
      <point x="534" y="8" type="line"/>
      <point x="324" y="-500" type="line"/>
    </contour>
  </outline>
</glyph>
<glyph name="Zacute" format="1">
  <advance width="1291"/>
  <unicode hex="0179"/>
  <outline>
    <contour>
      <point x="708" y="1666" type="line"/>
      <point x="902" y="2000" type="line"/>
      <point x="745" y="2000" type="line"/>
      <point x="589" y="1666" type="line"/>
    </contour>
    <contour>
      <point x="1206" y="0" type="line"/>
      <point x="1206" y="156" type="line"/>
      <point x="319" y="156" type="line"/>
      <point x="1190" y="1355" type="line"/>
      <point x="1190" y="1500" type="line"/>
      <point x="125" y="1500" type="line"/>
      <point x="125" y="1344" type="line"/>
      <point x="965" y="1344" type="line"/>
      <point x="85" y="135" type="line"/>
      <point x="85" y="0" type="line"/>
    </contour>
  </outline>
</glyph>
<glyph name="zdotaccent" format="1">
  <advance width="1044"/>
  <unicode hex="017C"/>
  <outline>
    <contour>
      <point x="522" y="1249" type="curve" smooth="yes"/>
      <point x="572" y="1249"/>
      <point x="606" y="1283"/>
      <point x="606" y="1333" type="curve" smooth="yes"/>
      <point x="606" y="1382"/>
      <point x="572" y="1416"/>
      <point x="522" y="1416" type="curve" smooth="yes"/>
      <point x="473" y="1416"/>
      <point x="438" y="1382"/>
      <point x="438" y="1333" type="curve" smooth="yes"/>
      <point x="438" y="1283"/>
      <point x="473" y="1249"/>
    </contour>
    <contour>
      <point x="969" y="0" type="line"/>
      <point x="969" y="148" type="line"/>
      <point x="315" y="148" type="line"/>
      <point x="943" y="921" type="line"/>
      <point x="943" y="1000" type="line"/>
      <point x="105" y="1000" type="line"/>
      <point x="105" y="852" type="line"/>
      <point x="694" y="852" type="line"/>
      <point x="75" y="91" type="line"/>
      <point x="75" y="0" type="line"/>
    </contour>
  </outline>
</glyph>
<glyph name="zcaron" format="1">
  <advance width="1043"/>
  <unicode hex="017E"/>
  <outline>
    <contour>
      <point x="614" y="1166" type="line" name="at01"/>
      <point x="826" y="1500" type="line"/>
      <point x="704" y="1500" type="line" name="av01"/>
      <point x="541" y="1237" type="line"/>
      <point x="379" y="1500" type="line" name="av01.1"/>
      <point x="256" y="1500" type="line"/>
      <point x="468" y="1166" type="line" name="at01.1"/>
    </contour>
    <contour>
      <point x="968" y="0" type="line"/>
      <point x="968" y="148" type="line"/>
      <point x="314" y="148" type="line"/>
      <point x="943" y="921" type="line"/>
      <point x="943" y="1000" type="line"/>
      <point x="104" y="1000" type="line"/>
      <point x="104" y="852" type="line"/>
      <point x="693" y="852" type="line"/>
      <point x="75" y="91" type="line"/>
      <point x="75" y="0" type="line"/>
    </contour>
  </outline>
</glyph>
<glyph name="dotaccent" format="1">
  <advance width="477"/>
  <unicode hex="02D9"/>
  <outline>
    <contour>
      <point x="237.961" y="1236" type="curve" smooth="yes"/>
      <point x="291.853" y="1236"/>
      <point x="328.5" y="1272.65"/>
      <point x="328.5" y="1326.54" type="curve" smooth="yes"/>
      <point x="328.5" y="1379.35"/>
      <point x="291.853" y="1416"/>
      <point x="237.961" y="1416" type="curve" smooth="yes"/>
      <point x="185.147" y="1416"/>
      <point x="148.5" y="1379.35"/>
      <point x="148.5" y="1326.54" type="curve" smooth="yes"/>
      <point x="148.5" y="1272.65"/>
      <point x="185.147" y="1236"/>
    </contour>
  </outline>
</glyph>
<glyph name="uni03A9" format="1">
  <advance width="1735"/>
  <unicode hex="03A9"/>
  <outline>
    <contour>
      <point x="1660" y="0" type="line"/>
      <point x="1660" y="155" type="line"/>
      <point x="1299" y="155" type="line"/>
      <point x="1496" y="303"/>
      <point x="1616" y="542"/>
      <point x="1616" y="810" type="curve" smooth="yes"/>
      <point x="1616" y="1237"/>
      <point x="1312" y="1530"/>
      <point x="868" y="1530" type="curve" smooth="yes"/>
      <point x="424" y="1530"/>
      <point x="119" y="1237"/>
      <point x="119" y="810" type="curve" smooth="yes"/>
      <point x="119" y="542"/>
      <point x="239" y="304"/>
      <point x="436" y="156" type="curve"/>
      <point x="75" y="156" type="line"/>
      <point x="75" y="0" type="line"/>
      <point x="700" y="0" type="line"/>
      <point x="700" y="78" type="line"/>
      <point x="462" y="178"/>
      <point x="299" y="453"/>
      <point x="299" y="758" type="curve" smooth="yes"/>
      <point x="299" y="1122"/>
      <point x="531" y="1374"/>
      <point x="868" y="1374" type="curve" smooth="yes"/>
      <point x="1205" y="1374"/>
      <point x="1436" y="1123"/>
      <point x="1436" y="759" type="curve" smooth="yes"/>
      <point x="1436" y="454"/>
      <point x="1273" y="179"/>
      <point x="1035" y="78" type="curve"/>
      <point x="1035" y="0" type="line"/>
    </contour>
  </outline>
</glyph>
<glyph name="wgrave" format="1">
  <advance width="1580"/>
  <unicode hex="1E81"/>
  <outline>
    <contour>
      <point x="836" y="1166" type="line"/>
      <point x="679" y="1500" type="line"/>
      <point x="522" y="1500" type="line"/>
      <point x="716" y="1166" type="line"/>
    </contour>
    <contour>
      <point x="1205" y="0" type="line"/>
      <point x="1525" y="1000" type="line"/>
      <point x="1351" y="1000" type="line"/>
      <point x="1112" y="200" type="line"/>
      <point x="867" y="1000" type="line"/>
      <point x="713" y="1000" type="line"/>
      <point x="467" y="200" type="line"/>
      <point x="228" y="1000" type="line"/>
      <point x="55" y="1000" type="line"/>
      <point x="374" y="0" type="line"/>
      <point x="564" y="0" type="line"/>
      <point x="789" y="764" type="line"/>
      <point x="1015" y="0" type="line"/>
    </contour>
  </outline>
</glyph>
<glyph name="quoteleft" format="1">
  <advance width="532"/>
  <unicode hex="2018"/>
  <outline>
    <contour>
      <point x="286" y="1070" type="line" name="av01"/>
      <point x="387" y="1520" type="line"/>
      <point x="280" y="1520" type="line"/>
      <point x="155" y="1070" type="line"/>
    </contour>
  </outline>
</glyph>
<glyph name="quotesinglbase" format="1">
  <advance width="470"/>
  <unicode hex="201A"/>
  <outline>
    <contour>
      <point x="236" y="-240" type="line"/>
      <point x="345" y="180" type="line"/>
      <point x="195" y="180" type="line" name="av01"/>
      <point x="115" y="-240" type="line"/>
    </contour>
  </outline>
</glyph>
<glyph name="perthousand" format="1">
  <advance width="2495"/>
  <unicode hex="2030"/>
  <outline>
    <contour>
      <point x="417" y="873" type="curve" smooth="yes"/>
      <point x="616" y="873"/>
      <point x="748" y="1002"/>
      <point x="748" y="1196" type="curve" smooth="yes"/>
      <point x="748" y="1391"/>
      <point x="617" y="1520"/>
      <point x="417" y="1520" type="curve" smooth="yes"/>
      <point x="218" y="1520"/>
      <point x="85" y="1391"/>
      <point x="85" y="1196" type="curve" smooth="yes"/>
      <point x="85" y="1002"/>
      <point x="218" y="873"/>
    </contour>
    <contour>
      <point x="429" y="0" type="line"/>
      <point x="1396" y="1500" type="line"/>
      <point x="1252" y="1500" type="line"/>
      <point x="285" y="0" type="line"/>
    </contour>
    <contour>
      <point x="417" y="974" type="curve" smooth="yes"/>
      <point x="291" y="974"/>
      <point x="207" y="1062"/>
      <point x="207" y="1196" type="curve" smooth="yes"/>
      <point x="207" y="1330"/>
      <point x="291" y="1419"/>
      <point x="417" y="1419" type="curve" smooth="yes"/>
      <point x="543" y="1419"/>
      <point x="626" y="1330"/>
      <point x="626" y="1196" type="curve" smooth="yes"/>
      <point x="626" y="1063"/>
      <point x="542" y="974"/>
    </contour>
    <contour>
      <point x="2079" y="-14" type="curve" smooth="yes"/>
      <point x="2278" y="-14"/>
      <point x="2410" y="115"/>
      <point x="2410" y="309" type="curve" smooth="yes"/>
      <point x="2410" y="504"/>
      <point x="2279" y="633"/>
      <point x="2079" y="633" type="curve" smooth="yes"/>
      <point x="1880" y="633"/>
      <point x="1747" y="504"/>
      <point x="1747" y="309" type="curve" smooth="yes"/>
      <point x="1747" y="115"/>
      <point x="1880" y="-14"/>
    </contour>
    <contour>
      <point x="1260" y="-20" type="curve" smooth="yes"/>
      <point x="1459" y="-20"/>
      <point x="1592" y="109"/>
      <point x="1592" y="303" type="curve" smooth="yes"/>
      <point x="1592" y="498"/>
      <point x="1460" y="627"/>
      <point x="1260" y="627" type="curve" smooth="yes"/>
      <point x="1061" y="627"/>
      <point x="929" y="498"/>
      <point x="929" y="303" type="curve" smooth="yes"/>
      <point x="929" y="109"/>
      <point x="1061" y="-20"/>
    </contour>
    <contour>
      <point x="2079" y="87" type="curve" smooth="yes"/>
      <point x="1953" y="87"/>
      <point x="1869" y="175"/>
      <point x="1869" y="309" type="curve" smooth="yes"/>
      <point x="1869" y="443"/>
      <point x="1953" y="532"/>
      <point x="2079" y="532" type="curve" smooth="yes"/>
      <point x="2205" y="532"/>
      <point x="2288" y="443"/>
      <point x="2288" y="309" type="curve" smooth="yes"/>
      <point x="2288" y="176"/>
      <point x="2204" y="87"/>
    </contour>
    <contour>
      <point x="1260" y="81" type="curve" smooth="yes"/>
      <point x="1134" y="81"/>
      <point x="1051" y="169"/>
      <point x="1051" y="303" type="curve" smooth="yes"/>
      <point x="1051" y="437"/>
      <point x="1134" y="526"/>
      <point x="1260" y="526" type="curve" smooth="yes"/>
      <point x="1386" y="526"/>
      <point x="1470" y="437"/>
      <point x="1470" y="303" type="curve" smooth="yes"/>
      <point x="1470" y="170"/>
      <point x="1385" y="81"/>
    </contour>
  </outline>
</glyph>
<glyph name="four.superior" format="1">
  <advance width="716"/>
  <unicode hex="2074"/>
  <outline>
    <contour>
      <point x="552" y="730" type="line"/>
      <point x="552" y="914" type="line"/>
      <point x="641" y="914" type="line"/>
      <point x="641" y="1004" type="line"/>
      <point x="552" y="1004" type="line"/>
      <point x="552" y="1500" type="line"/>
      <point x="462" y="1500" type="line"/>
      <point x="75" y="993" type="line"/>
      <point x="75" y="914" type="line"/>
      <point x="451" y="914" type="line"/>
      <point x="451" y="730" type="line"/>
    </contour>
    <contour>
      <point x="451" y="1004" type="line"/>
      <point x="179" y="1004" type="line"/>
      <point x="451" y="1359" type="line"/>
    </contour>
  </outline>
</glyph>
<glyph name="franc" format="1">
  <advance width="1252"/>
  <unicode hex="20A3"/>
  <outline>
    <contour>
      <point x="833" y="323" type="line"/>
      <point x="833" y="422" type="line"/>
      <point x="380" y="422" type="line"/>
      <point x="380" y="684" type="line"/>
      <point x="1067" y="684" type="line"/>
      <point x="1067" y="840" type="line"/>
      <point x="380" y="840" type="line"/>
      <point x="380" y="1344" type="line"/>
      <point x="1107" y="1344" type="line"/>
      <point x="1107" y="1500" type="line"/>
      <point x="204" y="1500" type="line"/>
      <point x="204" y="422" type="line"/>
      <point x="25" y="422" type="line" name="dv02"/>
      <point x="25" y="323" type="line" name="dv01"/>
      <point x="204" y="323" type="line"/>
      <point x="204" y="0" type="line"/>
      <point x="380" y="0" type="line"/>
      <point x="380" y="323" type="line"/>
    </contour>
  </outline>
</glyph>
<glyph name="trademark" format="1">
  <advance width="1574"/>
  <unicode hex="2122"/>
  <outline>
    <contour>
      <point x="357" y="780" type="line"/>
      <point x="357" y="1414" type="line"/>
      <point x="582" y="1414" type="line"/>
      <point x="582" y="1500" type="line"/>
      <point x="35" y="1500" type="line"/>
      <point x="35" y="1414" type="line"/>
      <point x="260" y="1414" type="line"/>
      <point x="260" y="780" type="line"/>
    </contour>
    <contour>
      <point x="1419" y="780" type="line"/>
      <point x="1419" y="1500" type="line"/>
      <point x="1301" y="1500" type="line"/>
      <point x="1055" y="1005" type="line"/>
      <point x="810" y="1500" type="line"/>
      <point x="693" y="1500" type="line"/>
      <point x="693" y="780" type="line"/>
      <point x="789" y="780" type="line"/>
      <point x="789" y="1351" type="line"/>
      <point x="1015" y="901" type="line"/>
      <point x="1095" y="901" type="line"/>
      <point x="1322" y="1353" type="line"/>
      <point x="1322" y="780" type="line"/>
    </contour>
  </outline>
</glyph>
<glyph name="estimated" format="1">
  <advance width="1172"/>
  <unicode hex="212E"/>
  <outline>
    <contour>
      <point x="1053" y="133" type="curve"/>
      <point x="1021" y="178" type="line"/>
      <point x="905" y="82"/>
      <point x="777" y="33"/>
      <point x="641" y="33" type="curve" smooth="yes" name="dv02"/>
      <point x="448" y="33"/>
      <point x="288" y="132"/>
      <point x="288" y="251" type="curve" smooth="yes"/>
      <point x="288" y="485" type="line" name="sh04"/>
      <point x="1097" y="485" type="line" name="dv03"/>
      <point x="1097" y="510" type="line" smooth="yes" name="sh01"/>
      <point x="1097" y="808"/>
      <point x="886" y="1020"/>
      <point x="589" y="1020" type="curve" smooth="yes" name="at01"/>
      <point x="291" y="1020"/>
      <point x="75" y="807"/>
      <point x="75" y="512" type="curve" smooth="yes" name="sh02"/>
      <point x="75" y="204"/>
      <point x="312" y="-20"/>
      <point x="640" y="-20" type="curve" smooth="yes" name="dv01"/>
      <point x="793" y="-20"/>
      <point x="924" y="28"/>
    </contour>
    <contour>
      <point x="884" y="538" type="line" name="dv04"/>
      <point x="288" y="538" type="line" name="sh03"/>
      <point x="288" y="768" type="line" smooth="yes"/>
      <point x="288" y="877"/>
      <point x="424" y="967"/>
      <point x="586" y="967" type="curve" smooth="yes" name="sv01"/>
      <point x="748" y="967"/>
      <point x="884" y="877"/>
      <point x="884" y="768" type="curve" smooth="yes"/>
    </contour>
  </outline>
</glyph>
<glyph name="notequal" format="1">
  <advance width="1265"/>
  <unicode hex="2260"/>
  <outline>
    <contour>
      <point x="452" y="-74" type="line" name="av01"/>
      <point x="556" y="177" type="line"/>
      <point x="1110" y="177" type="line"/>
      <point x="1110" y="308" type="line"/>
      <point x="610" y="308" type="line"/>
      <point x="757" y="664" type="line"/>
      <point x="1110" y="664" type="line"/>
      <point x="1110" y="795" type="line"/>
      <point x="812" y="795" type="line"/>
      <point x="916" y="1046" type="line" name="at01"/>
      <point x="813" y="1046" type="line"/>
      <point x="709" y="795" type="line"/>
      <point x="155" y="795" type="line"/>
      <point x="155" y="664" type="line"/>
      <point x="655" y="664" type="line"/>
      <point x="508" y="308" type="line"/>
      <point x="155" y="308" type="line"/>
      <point x="155" y="177" type="line"/>
      <point x="453" y="177" type="line"/>
      <point x="349" y="-74" type="line"/>
    </contour>
  </outline>
</glyph>
